# AST/ASF file generated using VICON BodyLanguage
# -----------------------------------------------
:version 1.10
:name VICON
:units
  mass 1.0
  length 0.1
  angle deg
:documentation
   .ast/.asf automatically generated from VICON data using
   VICON BodyBuilder and BodyLanguage model FULLBODY5.MOD
:root
   order TX TY TZ RZ RY RX
   axis XYZ
   position 0 0 0  
   orientation 0 -0 0 
:bonedata
  begin
     id 1 
     name lhipjoint
     direction 0.961525 -0.229516 0.150972 
     length 0.502153 
     axis 0 -0 0  XYZ
  end
  begin
     id 2 
     name lfemur
     direction 0.173648 -0.984808 0  
     length 1.83052  
     axis 0 -0 10  XYZ
    dof rx ry rz
    limits (-180.0 180.0)
           (-180.0 180.0)
           (-180.0 180.0)
  end
  begin
     id 3 
     name ltibia
     direction 0.173629 -0.984811 0   
     length 1.50296   
     axis 0 -0 10   XYZ
    dof rx ry rz
    limits (-180.0 180.0)
           (-180.0 180.0)
           (-180.0 180.0)
  end
  begin
     id 4 
     name lfoot
     direction 7.59329e-012 -0.227408 0.9738   
     length 0.574743   
     axis -90 -1.73656e-015 10   XYZ
    dof rx ry rz
    limits (-180.0 180.0)
           (-180.0 180.0)
           (-180.0 180.0)
  end
  begin
     id 5 
     name ltoes
     direction 7.79885e-012 -4.41741e-011 1   
     length 0.28489   
     axis -90 -1.73656e-015 10   XYZ
    dof rx ry rz
    limits (-180.0 180.0)
           (-180.0 180.0)
           (-180.0 180.0)
  end
  begin
     id 6 
     name rhipjoint
     direction -0.970498 -0.201437 0.132502   
     length 0.572149  
     axis 0 -0 0  XYZ 
  end
  begin
     id 7 
     name rfemur
     direction -0.173648 -0.984808 0   
     length 1.71866   
     axis 0 -0 -10   XYZ
    dof rx ry rz
    limits (-180.0 180.0)
           (-180.0 180.0)
           (-180.0 180.0)
  end
  begin
     id 8 
     name rtibia
     direction -0.173624 -0.984812 0   
     length 1.42623   
     axis 0 -0 -10   XYZ
    dof rx ry rz
    limits (-180.0 180.0)
           (-180.0 180.0)
           (-180.0 180.0)
 end
 begin
     id 9 
     name rfoot
     direction -7.12931e-012 -0.404275 0.914637   
     length 0.524692  
     axis -90 1.73656e-015 -10   XYZ
    dof rx ry rz
    limits (-180.0 180.0)
           (-180.0 180.0)
           (-180.0 180.0)
  end
  begin
     id 10 
     name rtoes
     direction -7.79289e-012 -4.41454e-011 1   
     length 0.254983   
     axis -90 1.73656e-015 -10   XYZ
    dof rx ry rz
    limits (-180.0 180.0)
           (-180.0 180.0)
           (-180.0 180.0)
  end
  begin
     id 11 
     name lowerback
     direction -0.0214086 0.993738 0.109665   
     length 0.417614   
     axis 0 -0 0   XYZ
    dof rx ry rz
    limits (-180.0 180.0)
           (-180.0 180.0)
           (-180.0 180.0)
  end
  begin
     id 12 
     name upperback
     direction 8.15962e-005 0.99996 0.00893412   
     length 0.419234   
     axis 0 -0 0   XYZ
    dof rx ry rz
    limits (-180.0 180.0)
           (-180.0 180.0)
           (-180.0 180.0)
  end
  begin
     id 13 
     name thorax
     direction 0.00826031 0.999067 -0.0423848   
     length 0.424697   
     axis 0 -0 0   XYZ
    dof rx ry rz
    limits (-180.0 180.0)
           (-180.0 180.0)
           (-180.0 180.0)
  end
  begin
     id 14 
     name lowerneck
     direction -0.0196262 0.994272 -0.105058   
     length 0.355877   
     axis 0 -0 0   XYZ
    dof rx ry rz
    limits (-180.0 180.0)
           (-180.0 180.0)
           (-180.0 180.0)
  end
  begin
     id 15 
     name upperneck
     direction 0.000117372 0.999091 0.0426261   
     length 0.351054   
     axis 0 -0 0   XYZ
    dof rx ry rz
    limits (-180.0 180.0)
           (-180.0 180.0)
           (-180.0 180.0)
  end
  begin
     id 16
     name head
     direction 0.00157618 0.999651 0.0263619  
     length 0.374844  
     axis 0 -0 0   XYZ
    dof rx ry rz
    limits (-180.0 180.0)
           (-180.0 180.0)
           (-180.0 180.0)
  end
  begin
     id 17 
     name lshoulderjoint
     direction 0.981627 -0.190809 0  
     length 0.701763  
     axis 0 -0 -11   XYZ
    dof rx ry rz
    limits (-180.0 180.0)
           (-180.0 180.0)
           (-180.0 180.0)
  end
  begin
     id 18 
     name lhumerus
     direction 0.48481 -0.87462 -1.80676e-026   
     length 0.994704   
     axis -180 5.14477e-009 -151   XYZ
    dof rx ry rz
    limits (-180.0 180.0)
           (-180.0 180.0)
           (-180.0 180.0)
  end
  begin
     id 19
     name lradius
     direction 0.48481 -0.87462 -3.2569e-026   
     length 0.617638   
     axis -180 5.14477e-009 -151   XYZ
    dof rx ry rz
    limits (-180.0 180.0)
           (-180.0 180.0)
           (-180.0 180.0)
  end
  begin
     id 20
     name lwrist
     direction 0.48481 -0.87462 -6.73202e-026   
     length 0.308819   
     axis -180 5.14477e-009 -151   XYZ
    dof rx ry rz
    limits (-180.0 180.0)
           (-180.0 180.0)
           (-180.0 180.0)
  end
  begin
     id 21 
     name lhand
     direction 0.478366 -0.863761 -0.158376   
     length 0.291656   
     axis -180 5.14477e-009 -151   XYZ
    dof rx ry rz
    limits (-180.0 180.0)
           (-180.0 180.0)
           (-180.0 180.0)
  end
  begin
     id 22 
     name rshoulderjoint
     direction -0.981627 -0.190809 0   
     length 0.66654  
     axis 0 -0 11   XYZ 
    dof rx ry rz
    limits (-180.0 180.0)
           (-180.0 180.0)
           (-180.0 180.0)
  end
  begin
     id 23 
     name rhumerus
     direction -0.48481 -0.87462 1.77576e-026  
     length 1.15089   
     axis 180 5.14477e-009 151   XYZ
    dof rx ry rz
    limits (-180.0 180.0)
           (-180.0 180.0)
           (-180.0 180.0)
  end
  begin
     id 24 
     name rradius
     direction -0.48481 -0.87462 3.79421e-026   
     length 0.613887   
     axis 180 5.14477e-009 151   XYZ
    dof rx ry rz
    limits (-180.0 180.0)
           (-180.0 180.0)
           (-180.0 180.0)
  end
  begin
     id 25 
     name rwrist
     direction -0.48481 -0.87462 5.43623e-026   
     length 0.306944   
     axis 180 5.14477e-009 151   XYZ
    dof rx ry rz
    limits (-180.0 180.0)
           (-180.0 180.0)
           (-180.0 180.0)
  end
  begin
     id 26
     name rhand
     direction -0.479273 -0.864638 -0.150661   
     length 0.306429   
     axis 180 5.14477e-009 151   XYZ
    dof rx ry rz
    limits (-180.0 180.0)
           (-180.0 180.0)
           (-180.0 180.0)
  end
:hierarchy
  begin
    root lhipjoint rhipjoint lowerback 
    lhipjoint lfemur
    lfemur ltibia
    ltibia lfoot
    lfoot ltoes
    rhipjoint rfemur
    rfemur rtibia
    rtibia rfoot
    rfoot rtoes
    lowerback upperback
    upperback thorax
    thorax lowerneck lshoulderjoint rshoulderjoint
    lowerneck upperneck
    upperneck head
    lshoulderjoint lhumerus
    lhumerus lradius
    lradius lwrist
    lwrist lhand
    rshoulderjoint rhumerus
    rhumerus rradius
    rradius rwrist
    rwrist rhand
  end

:FULLY-SPECIFIED
:DEGREES
969
root -9.32107 3.62345 -0.512636 73.6122 -77.5135 67.8408
lowerback -12.6594 -3.52051 -4.57505
upperback -3.29215 -4.18599 -0.685577
thorax 3.88764 -2.16168 1.18172
lowerneck 11.9456 1.35083 -3.65165
upperneck -4.22761 1.41081 2.46161
head -3.57183 0.647454 1.37886
rshoulderjoint 1.33131 -3.53275 -31.6642
rhumerus -11.8568 -29.9464 -52.1223
rradius 26.4478 -3.40319e-013 1.64296e-013
rwrist -5.80771e-014 9.68124 6.0497e-013
rhand 13.1482 -8.61486 26.9448
lshoulderjoint 2.39828 8.88407 26.1734
lhumerus 10.7618 -1.68322 50.8844
lradius 30.2921 9.93923e-015 -7.95139e-016
lwrist 1.10113e-013 -10.866 1.78124e-014
lhand 18.8283 10.0106 -22.4258
rfemur -28.0783 4.27023 6.4856
rtibia 8.25894 -6.36111e-015 7.15625e-015
rfoot 6.81437 14.0043 -15.1019
rtoes 1.29806e-013 2.6749e-014 -7.4743e-014
lfemur -7.55908 -12.8088 -19.5917
ltibia 24.0478 -1.43125e-014 -7.95139e-015
lfoot -18.7291 -2.92662 9.94966
ltoes 9.70069e-014 -1.47287e-014 2.98177e-016
970
root -9.34726 3.6273 -0.51711 73.7159 -77.552 68.248
lowerback -12.6672 -3.40012 -4.1253
upperback -3.29204 -4.08391 -0.651137
thorax 3.85929 -2.10732 0.984215
lowerneck 11.8736 1.33642 -3.63581
upperneck -4.20546 1.39295 2.41351
head -3.54829 0.640927 1.3607
rshoulderjoint 1.3976 -3.70553 -31.6817
rhumerus -11.4391 -29.3241 -52.4206
rradius 26.5961 1.97194e-013 5.24792e-014
rwrist 5.09991e-013 9.8142 -1.8237e-013
rhand 13.1425 -8.63109 27.1034
lshoulderjoint 2.42228 8.98232 26.1598
lhumerus 10.4336 -1.66601 51.1052
lradius 29.5118 8.74653e-015 3.73715e-014
lwrist 4.11607e-013 -11.083 1.37742e-013
lhand 18.9781 10.1775 -22.5525
rfemur -27.6002 4.45957 6.87445
rtibia 8.19904 -2.22639e-014 -4.77083e-015
rfoot 6.12404 13.7005 -15.6154
rtoes 1.06052e-013 -8.64838e-014 2.54444e-014
lfemur -8.15553 -12.4548 -19.2892
ltibia 26.0535 1.19271e-014 1.98785e-014
lfoot -18.7887 -3.48879 10.1304
ltoes 1.74931e-014 -1.22812e-014 3.21037e-014
971
root -9.37127 3.63184 -0.521531 74.076 -77.7717 68.6839
lowerback -12.3791 -3.29605 -3.93327
upperback -3.29242 -3.98216 -0.682044
thorax 3.68214 -2.05303 0.878993
lowerneck 11.8864 1.34407 -3.57405
upperneck -4.1991 1.40808 2.36255
head -3.54732 0.649406 1.33128
rshoulderjoint 1.32999 -3.51382 -31.7471
rhumerus -11.1601 -28.7687 -52.754
rradius 26.8239 -1.08139e-013 -5.56597e-015
rwrist -4.17887e-013 9.72533 1.61346e-013
rhand 13.0656 -8.54741 27.4136
lshoulderjoint 2.46815 9.10514 26.2369
lhumerus 10.0548 -1.69213 51.3035
lradius 28.6326 4.8901e-014 -1.19271e-014
lwrist -2.6923e-013 -11.3267 -1.24073e-013
lhand 19.122 10.5076 -22.6152
rfemur -26.6673 4.70112 7.04414
rtibia 7.4204 9.54166e-015 -3.97569e-015
rfoot 5.67282 13.7093 -15.9443
rtoes -2.6575e-014 1.25669e-014 2.22639e-014
lfemur -8.74288 -12.062 -19.1945
ltibia 28.235 -7.95139e-016 -8.74653e-015
lfoot -18.668 -2.93704 9.9813
ltoes -7.95139e-015 4.8168e-014 -3.74709e-014
972
root -9.39605 3.63696 -0.525674 73.8089 -77.8956 68.7366
lowerback -12.249 -3.19853 -3.45826
upperback -3.32012 -3.91905 -0.645958
thorax 3.55182 -2.01719 0.670833
lowerneck 12.0095 1.34522 -3.57637
upperneck -4.16267 1.4012 2.33321
head -3.55794 0.646057 1.32232
rshoulderjoint 1.29514 -3.40133 -31.86
rhumerus -10.943 -27.9455 -53.0803
rradius 27.1561 3.05333e-013 3.89618e-014
rwrist 4.0179e-013 9.75624 -2.82382e-013
rhand 12.741 -8.59265 27.8389
lshoulderjoint 2.46749 9.06092 26.3032
lhumerus 9.56965 -1.43767 51.572
lradius 27.7194 1.03368e-014 -7.15625e-015
lwrist -6.48882e-014 -11.3861 -2.59553e-014
lhand 19.3962 10.5715 -22.4835
rfemur -25.2935 4.82628 7.48002
rtibia 5.71233 7.95139e-015 1.11319e-014
rfoot 5.79341 14.8052 -15.5618
rtoes 1.64619e-013 -7.72589e-014 1.90833e-014
lfemur -9.5053 -11.6996 -18.8205
ltibia 30.6184 1.59028e-015 1.74931e-014
lfoot -18.4434 -2.06996 9.60355
ltoes 6.36111e-014 -3.22777e-014 2.68359e-014
973
root -9.42002 3.64196 -0.529485 73.2149 -77.9536 68.4606
lowerback -12.1678 -3.14759 -3.02071
upperback -3.43031 -3.91519 -0.604619
thorax 3.36724 -2.01206 0.479508
lowerneck 12.4885 1.36907 -3.52928
upperneck -4.19517 1.42033 2.32241
head -3.66322 0.651477 1.30992
rshoulderjoint 1.15019 -3.02122 -31.8534
rhumerus -10.9345 -27.308 -53.1809
rradius 27.5568 -1.59028e-014 7.37988e-014
rwrist -3.34036e-013 9.7739 2.08167e-013
rhand 12.4423 -8.53765 28.1853
lshoulderjoint 2.44024 8.92786 26.3551
lhumerus 8.92927 -1.08568 51.7568
lradius 26.7894 -6.52014e-014 -5.32743e-014
lwrist -6.09885e-013 -11.3565 -1.63015e-013
lhand 19.6448 10.6734 -22.1436
rfemur -23.1613 4.8442 7.93077
rtibia 2.24642 -3.81667e-014 3.18055e-015
rfoot 6.68055 15.2786 -15.2373
rtoes 6.43068e-014 -5.80203e-014 -6.67916e-014
lfemur -10.4094 -11.4687 -18.4199
ltibia 33.1369 -7.95139e-015 -5.56597e-015
lfoot -18.0536 -0.814324 9.14502
ltoes 6.04305e-014 -2.83268e-015 3.37934e-015
974
root -9.44348 3.6467 -0.533865 72.1635 -77.9593 67.8589
lowerback -12.0394 -3.13966 -2.52353
upperback -3.47928 -3.97408 -0.472198
thorax 3.22545 -2.03784 0.340287
lowerneck 12.4836 1.39466 -3.58834
upperneck -4.05887 1.44346 2.33903
head -3.61597 0.661977 1.32381
rshoulderjoint 1.10609 -2.88271 -32.0021
rhumerus -10.6917 -26.1612 -53.4785
rradius 28.0369 -4.10292e-013 -8.34399e-014
rwrist 4.21022e-013 9.65214 1.69377e-013
rhand 12.1684 -8.44894 28.4929
lshoulderjoint 2.49114 9.06987 26.4287
lhumerus 8.48618 -0.774931 52.0788
lradius 25.8614 6.04305e-014 -7.15625e-015
lwrist 9.2385e-013 -11.135 1.05351e-013
lhand 19.9608 10.5344 -21.4848
rfemur -21.6 4.79535 8.52318
rtibia -6.20208e-014 7.95139e-015 7.95139e-015
rfoot 6.96242 15.3964 -15.0513
rtoes -3.18055e-015 7.92405e-014 -6.67916e-014
lfemur -11.4121 -11.1424 -17.8594
ltibia 35.7624 -1.90833e-014 -1.66979e-014
lfoot -17.5574 0.439872 8.69865
ltoes 3.18055e-014 7.15625e-015 -9.93923e-015
